<svg width="179" height="30" xmlns="http://www.w3.org/2000/svg" xmlns:xlink="http://www.w3.org/1999/xlink"><defs><path id="a" d="M25.185 0v21.237H0V0h25.185z"/></defs><g fill="none" fill-rule="evenodd"><path d="M22.852 18.657c-.475 1.216-1.163 2.378-1.215 3.752 0 .635.476 1.216 1.004 1.428.476.37 1.216.158 1.48.74 0 .264.106.634-.159.792l-7.4-.053-.105.053c.529 1.163 1.586 1.85 2.59 2.537 2.06.952 4.915.845 6.765-.528 1.216-1.005 1.744-2.379 1.586-3.964-.37-2.273-2.484-4.017-4.546-4.757zm5.391-12.738c-.105-.052-.211-.052-.264.053l-.105 4.705c0 .21-.107.422-.317.475-1.164.211-.582-1.216-1.004-1.744-.74 1.797-1.48 3.54-2.115 5.338.159.317.529.37.793.529 2.061 0 4.28.052 6.395-.053a.227.227 0 0 0 .211-.212l-3.594-9.09zm-3.7.16c-1.532-1.375-3.858-1.481-5.76-.794-1.322.529-2.114 2.008-2.114 3.436 0 1.004.58 1.796 1.162 2.484 1.533 1.268 3.225 2.167 5.021 3.012.053 0 .053-.105.106-.105l2.431-6.026.264-.74c-.317-.475-.634-.898-1.11-1.268zM10.38.158c.158.052.423.158.476.37.053.264.053.686-.265.74-1.268 0-2.8-.212-3.33 1.215l-.158.951v14.808c.053 2.325 1.216 4.484 3.33 5.33 1.057.422 2.272.686 3.488.634l.053-.159.053-2.801c0-.106.159-.264.264-.264.264 0 .529-.053.687.158.212.952.423 1.903.687 2.801.476.212 1.005-.105 1.48-.212 1.057-.37 2.273-.95 2.749-2.06l1.48-3.647-.106-.106c-2.379-1.321-5.444-2.22-6.554-5.127-1.057-2.061-.634-4.968.899-6.712 1.902-1.956 4.809-2.801 7.558-1.956 1.056.318 2.06 1.005 2.96 1.639l.21-.053 1.322-3.171c0-.634-.74-.74-1.216-.952-.37-.158-.95 0-1.162-.422 0-.317-.053-.688.317-.846 2.325 0 4.67-.046 7.055.006.384.073.66.205.608.628 0 .264 0 .581-.264.634-.845.053-1.691.212-2.273.793l.054.423 3.54 8.88c1.427 3.594 2.802 7.24 4.387 10.781.529 1.004 1.533 1.797 2.643 1.85.264.159.211.423.211.687 0 .16-.211.264-.317.317h-8.721c-.264-.158-.158-.528-.105-.74.212-.475.898-.105 1.321-.317.529-.105 1.162-.37 1.269-1.004l-.053-.528c-.74-2.115-1.692-4.122-2.485-6.237l-.369-.212H27.45c-.105.106-.422.054-.264.265 2.114 1.797 3.224 4.334 2.695 7.187-.317 2.643-2.695 5.075-5.179 5.71-2.59.686-5.391.21-7.4-1.375l-1.374-1.268c-.316-.053-.422.369-.528.58-.264.424-.159 1.057-.581 1.322-.265.052-.529.052-.74-.106l-.106-.159v-2.8l-.106-.053c-4.016.159-8.245-.899-9.883-4.704-.319-.623-.482-2.038-.482-2.038l.006-15.826a2.3 2.3 0 0 0-.95-1.639C1.816 1.11.97 1.163.177 1.057.02.899-.032.582.02.37.073.211.126.053.284.053L.654 0l9.725.158zM48 4.957V4l4.808.105L57.238 4v.957c-1.24.02-1.993.073-2.258.157-.266.085-.451.202-.555.352-.125.2-.203.683-.235 1.45-.013.2-.039 1.616-.078 4.248v2.078c2.063.07 4.577.105 7.541.105 2.272 0 4.09-.035 5.452-.105v-2.078a99.3 99.3 0 0 0-.079-3.978c-.031-.948-.106-1.508-.226-1.683-.12-.174-.313-.304-.579-.389-.265-.084-1.018-.137-2.258-.157V4c2.251.07 3.796.105 4.634.105.314 0 1.844-.035 4.588-.105v.957c-1.23.02-1.98.073-2.251.157-.27.085-.453.202-.547.351-.135.2-.218.683-.25 1.45-.013.2-.039 1.614-.078 4.244v6.919c0 1.355.026 2.675.078 3.96.02.946.092 1.51.21 1.689.121.18.317.311.587.396.271.084 1.022.137 2.251.157v.957c-2.022-.07-3.676-.105-4.965-.105-1.372 0-2.79.035-4.257.105v-.957c1.246-.02 2.003-.073 2.27-.157.267-.084.453-.2.558-.35.136-.199.214-.68.235-1.446.01-.21.037-1.62.079-4.234v-3.4c-2.933-.07-5.159-.105-6.678-.105-1.655 0-3.76.035-6.315.105v3.4c0 1.351.015 2.668.047 3.95.031.945.107 1.506.228 1.685.12.18.314.311.581.395.267.084 1.024.137 2.27.157v.957a88.665 88.665 0 0 0-4.368-.105c-1.633 0-3.257.035-4.87.105v-.957c1.23-.02 1.98-.073 2.25-.157.272-.085.46-.202.563-.352.125-.198.204-.682.235-1.449.013-.209.04-1.624.078-4.244v-6.92c0-1.354-.015-2.68-.046-3.974-.032-.947-.108-1.507-.228-1.682-.121-.174-.315-.303-.582-.388-.267-.084-1.024-.137-2.27-.157m27.33 20.31v-.957c1.1-.01 1.823-.09 2.168-.24a.574.574 0 0 0 .314-.283c.105-.2.178-.722.22-1.568.063-1.314.095-2.45.095-3.405v-7.63c0-1.354-.016-2.678-.048-3.972-.031-.946-.107-1.505-.227-1.68-.121-.174-.315-.303-.582-.388-.267-.085-1.024-.137-2.27-.157V4.03l4.478.09 4.744-.075A421.85 421.85 0 0 1 89.172 4c1.036 0 2.015.055 2.938.165a11.348 11.348 0 0 0-.346 1.48c-.021.09-.115 1.127-.283 3.111h-.99a15.254 15.254 0 0 0-.204-2.782 7.43 7.43 0 0 0-1.901-.464 29.771 29.771 0 0 0-3.52-.209c-.251 0-.811.02-1.68.06-.87.04-1.493.075-1.87.104a184.208 184.208 0 0 0-.094 3.1l-.063 5.036c1.225.07 2.351.105 3.378.105 1.246 0 2.31-.055 3.19-.164.335-.04.549-.12.643-.24.094-.12.178-.528.252-1.226l.094-1.047h.942v.284l-.078 3.111.078 3.484h-1.1l-.046-1.016c-.021-.738-.092-1.197-.212-1.376-.12-.18-.349-.304-.684-.374-.597-.12-1.754-.18-3.472-.18-.702 0-1.697.025-2.985.075-.053.997-.079 2.478-.079 4.442 0 1.845.026 3.245.079 4.202a70.21 70.21 0 0 0 5.067.165c1.328 0 2.274-.04 2.84-.12a6.9 6.9 0 0 0 1.568-.404c.125-.309.25-.727.377-1.256.23-.887.381-1.555.454-2.004h1.053c-.272 2.013-.408 3.682-.408 5.007-.902.132-1.996.198-3.284.198l-9.38-.105c-.136 0-1.508.035-4.116.105m25.99-8.197h7.92l-3.912-9-4.008 9zM94 25.462v-1.017c.829-.01 1.345-.042 1.55-.097.204-.055.393-.16.566-.314.173-.155.422-.556.748-1.204.188-.37.87-1.77 2.044-4.203l3.934-8.435c.43-.927 1.348-2.99 2.753-6.191h1.006l6.718 15c1.09 2.433 1.815 3.958 2.17 4.576.2.35.418.58.654.689.236.11.768.169 1.597.179v1.017c-1.637-.1-2.78-.15-3.43-.15l-5.064.15v-1.017c1.173-.02 1.885-.055 2.137-.105.251-.05.422-.122.51-.217a.494.494 0 0 0 .135-.351c0-.22-.074-.503-.221-.853l-1.93-4.576h-9.099l-1.706 3.844c-.304.688-.457 1.191-.457 1.51 0 .14.042.255.126.344.116.13.294.22.536.27.387.08 1.068.124 2.042.134v1.017c-1.771-.09-3.098-.134-3.98-.134-1.019 0-2.131.044-3.339.134zm25.414-.225v-.778c.643-.289 1.053-.518 1.23-.688a.705.705 0 0 0 .217-.343c.094-.279.156-.877.187-1.793.052-1.365.079-2.177.079-2.437V11.16c0-1.355-.016-2.68-.048-3.975-.03-.947-.107-1.507-.227-1.682-.121-.174-.315-.303-.582-.388-.267-.084-1.024-.137-2.27-.157V4c2.556.07 4.137.104 4.745.104.67 0 2.173-.034 4.51-.104v.957c-1.248.02-2.004.073-2.271.157-.267.085-.453.202-.558.351-.125.2-.204.683-.236 1.45-.013.2-.039 1.614-.078 4.244V21.2c0 1.046.026 1.897.078 2.555 1.194.07 2.378.105 3.55.105 2.955 0 5.023-.18 6.207-.539.136-.299.256-.642.361-1.031l.629-2.483h1.053a119.54 119.54 0 0 0-.676 5.234c-.43.08-.77.13-1.022.15-.544.03-1.382.045-2.513.045l-9.301-.105a45.66 45.66 0 0 0-3.064.105M135.13 8.95h-.973c-.01-2.383-.063-4.033-.157-4.95 1.141.04 2.933.09 5.373.15 1.98.04 3.3.06 3.96.06.712 0 2.361-.03 4.948-.09 1.875-.04 3.242-.08 4.101-.12-.125 1.117-.21 2.767-.251 4.95h-1.006L151 7.515c-.084-.868-.142-1.362-.173-1.481a.496.496 0 0 0-.134-.254.637.637 0 0 0-.259-.12c-.147-.03-.67-.07-1.571-.12a40.885 40.885 0 0 0-2.137-.075h-1.917c-.105.957-.157 2.247-.157 3.87v8.743c0 1.355.016 2.675.048 3.96.03.946.107 1.51.227 1.689.12.18.314.31.581.396.267.084 1.024.137 2.27.157v.957c-1.874-.08-3.283-.12-4.225-.12-.409 0-2.043.04-4.902.12v-.957c1.24-.02 1.995-.073 2.266-.157.27-.085.454-.202.547-.352.135-.199.218-.682.25-1.449 0-.209.026-1.624.079-4.244V9.366c0-.418-.011-.877-.031-1.375l-.095-2.526h-2.341c-1.351 0-2.425.05-3.22.15-.252.03-.415.095-.488.194-.115.17-.22.713-.314 1.63l-.173 1.511z" fill="#FFF"/><g transform="translate(153.744 3.931)"><mask id="b" fill="#fff"><use xlink:href="#a"/></mask><path d="M0 .957V0l4.807.105L9.237 0v.957c-1.24.02-1.992.073-2.257.157-.266.085-.45.202-.555.352-.125.2-.203.683-.235 1.45-.013.2-.039 1.616-.078 4.248v2.078c2.063.07 4.577.105 7.541.105 2.273 0 4.09-.035 5.452-.105V7.164c0-1.356-.027-2.682-.078-3.978-.032-.948-.108-1.508-.227-1.683-.12-.174-.313-.304-.579-.389-.265-.084-1.018-.137-2.258-.157V0c2.252.07 3.797.105 4.635.105.313 0 1.843-.035 4.587-.105v.957c-1.23.02-1.98.073-2.251.157-.27.085-.453.202-.547.351-.135.2-.218.683-.25 1.45-.013.2-.04 1.614-.079 4.244v6.919c0 1.355.027 2.675.08 3.96.02.946.09 1.51.21 1.689.12.18.315.311.586.396.271.084 1.022.137 2.251.157v.957c-2.022-.07-3.676-.105-4.965-.105-1.372 0-2.79.035-4.257.105v-.957c1.246-.02 2.003-.073 2.27-.157.267-.084.452-.2.557-.35.137-.199.215-.68.237-1.446.01-.21.036-1.62.078-4.234v-3.4c-2.933-.07-5.159-.105-6.677-.105-1.655 0-3.76.035-6.316.105v3.4c0 1.351.015 2.668.047 3.95.031.945.107 1.506.228 1.685.12.18.314.311.581.395.267.084 1.024.137 2.27.157v.957a88.626 88.626 0 0 0-4.367-.105c-1.635 0-3.258.035-4.871.105v-.957c1.23-.02 1.98-.073 2.25-.157.272-.085.46-.202.563-.352.126-.198.203-.682.235-1.449.013-.209.04-1.624.079-4.244v-6.92c0-1.354-.016-2.68-.048-3.974-.031-.947-.107-1.507-.227-1.682-.121-.174-.315-.303-.582-.388C2.003 1.03 1.246.977 0 .957" fill="#FFF" mask="url(#b)"/></g></g></svg>